<?xml version="1.0" encoding="UTF-8"?>
<svg width="2151px" height="1644px" viewBox="0 0 2151 1644" version="1.1" xmlns="http://www.w3.org/2000/svg" xmlns:xlink="http://www.w3.org/1999/xlink">
    <!-- Generator: Sketch 62 (91390) - https://sketch.com -->
    <title>rain</title>
    <desc>Created with Sketch.</desc>
    <g id="rain" stroke="none" stroke-width="1" fill="none" fill-rule="evenodd">
        <g id="Group-2" fill-rule="nonzero">
            <ellipse id="Oval" fill="#4F4B4B" cx="1082.5" cy="1574" rx="1068.5" ry="70"></ellipse>
            <ellipse id="Oval" fill="#000000" opacity="0.1" cx="1074.5" cy="1568" rx="368.5" ry="39"></ellipse>
            <path d="M928.024717,968.194195 C928.024717,968.194195 910.051678,935.730407 887.962023,951.412565 C865.872368,967.094722 895.499012,986.13302 895.499012,986.13302 L928.778467,971.666241" id="Path" fill="#6A6A6A" transform="translate(904.278467, 966.633020) rotate(-7.000000) translate(-904.278467, -966.633020) "></path>
            <path d="M727.377386,1436.23488 L731.235538,1504.12064 C731.235538,1504.12064 812.550644,1428.63473 908.665594,1454.83358 C908.665594,1454.83358 1039.44951,1307.14367 1162.9189,1309.33212 C1162.9189,1309.33212 1196.49335,1197.16814 1395.11603,1128.82248 C1395.11603,1128.82248 1410.66532,1016.94633 1506.37739,974.510878 L1440.61157,938.120641 L1322.84317,945.547913 L1162.97754,1009.11465 L967.003747,1156.45888 L743.387412,1309.79126 L727.377386,1436.23488 Z" id="Path" fill="#6C63FF" transform="translate(1116.877386, 1221.120641) rotate(-7.000000) translate(-1116.877386, -1221.120641) "></path>
            <path d="M727.377386,1436.23488 L731.235538,1504.12064 C731.235538,1504.12064 812.550644,1428.63473 908.665594,1454.83358 C908.665594,1454.83358 1039.44951,1307.14367 1162.9189,1309.33212 C1162.9189,1309.33212 1196.49335,1197.16814 1395.11603,1128.82248 C1395.11603,1128.82248 1410.66532,1016.94633 1506.37739,974.510878 L1440.61157,938.120641 L1322.84317,945.547913 L1162.97754,1009.11465 L967.003747,1156.45888 L743.387412,1309.79126 L727.377386,1436.23488 Z" id="Path" fill="#1C315F" opacity="0.925711496" transform="translate(1116.877386, 1221.120641) rotate(-7.000000) translate(-1116.877386, -1221.120641) "></path>
            <path d="M1068.60627,1155.64779 L1326.84752,1562.52633 C1326.84752,1562.52633 1370.21408,1629.06357 1418.76434,1586.01033 C1447.95452,1560.1252 1440.98264,1530.3075 1430.78085,1510.64315 C1419.88417,1489.63945 1387.8631,1502.28962 1394.58092,1524.97614 C1394.68994,1525.34446 1394.80345,1525.71654 1394.92145,1526.09236 C1394.92145,1526.09236 1396.80367,1574.68448 1364.08489,1551.09295 C1356.59315,1545.58244 1350.26371,1538.64791 1345.45964,1530.68715 L1105.1197,1140.51017 L1068.60627,1155.64779 Z" id="Path" fill="#6A6A6A" transform="translate(1254.106274, 1370.510174) rotate(-7.000000) translate(-1254.106274, -1370.510174) "></path>
            <path d="M884.049908,1325.11339 C884.049908,1325.11339 897.237267,1452.74432 929.049908,1482.11339" id="Path" fill="#000000" opacity="0.1" transform="translate(906.549908, 1403.613386) rotate(-7.000000) translate(-906.549908, -1403.613386) "></path>
            <path d="M1252.54416,988.850279 C1252.54416,988.850279 1356.01774,1067.94531 1374.54416,1103.85028" id="Path" fill="#000000" opacity="0.1" transform="translate(1313.544161, 1046.350279) rotate(-7.000000) translate(-1313.544161, -1046.350279) "></path>
            <path d="M933.260716,949.203 C933.260716,949.203 897.781721,985.805729 868.177573,999.445351 C868.177573,999.445351 632.322988,1213.1914 727.815333,1503.42487 C727.815333,1503.42487 750.450928,1357.53145 844.792439,1358.79795 C844.792439,1358.79795 898.817563,1224.18477 1082.7203,1187.98546 C1082.7203,1187.98546 1139.74035,1067.18479 1336.7173,1024.53963 C1336.7173,1024.53963 1381.69977,931.651386 1503.05345,974.067426 C1503.05345,974.067426 1349.04358,797.728521 1013.66429,902.874161 C1013.66429,902.874184 953.995133,944.714026 933.260716,949.203 Z" id="Path" fill="#00A3EA" transform="translate(1104.053447, 1186.424869) rotate(-7.000000) translate(-1104.053447, -1186.424869) "></path>
            <path d="M868.393282,1033.33097 C868.393282,1033.33097 775.857912,1205.60486 845.114838,1393.33097" id="Path" fill="#000000" opacity="0.1" transform="translate(843.893282, 1213.330972) rotate(-7.000000) translate(-843.893282, -1213.330972) "></path>
            <path d="M1067.70429,1203.16805 C997.285348,1128.82138 947.985007,1049.06094 918.704288,964.16805" id="Path" fill="#000000" opacity="0.1" transform="translate(993.204288, 1083.668050) rotate(-7.000000) translate(-993.204288, -1083.668050) "></path>
            <path d="M1307.59855,1019.54132 C1307.59855,1019.54132 1183.0404,877.589643 985.598553,899.925547" id="Path" fill="#000000" opacity="0.1" transform="translate(1146.598553, 958.541316) rotate(-7.000000) translate(-1146.598553, -958.541316) "></path>
            <path d="M1547.9663,138.196948 C1543.82107,155.817329 1538.58473,160.011223 1533.62528,158.809037 C1528.66582,157.606852 1525.86129,151.463614 1530.00649,133.843233 C1534.15169,116.222852 1548.63645,95 1548.63645,95 C1548.63645,95 1552.11155,120.576567 1547.9663,138.196948 Z" id="Path" fill="#F2F2F2"></path>
            <path d="M1398.5797,512.869952 C1391.60812,541.778407 1382.8016,548.659117 1374.46069,546.686675 C1366.11978,544.714232 1361.40307,534.635601 1368.37458,505.727261 C1375.34609,476.818921 1399.70677,442 1399.70677,442 C1399.70677,442 1405.55121,483.961473 1398.5797,512.869952 Z" id="Path" fill="#F2F2F2"></path>
            <path d="M1145.5797,632.869952 C1138.60812,661.778407 1129.8016,668.659117 1121.46069,666.686675 C1113.11978,664.714232 1108.40307,654.635601 1115.37458,625.727261 C1122.34609,596.818921 1146.70677,562 1146.70677,562 C1146.70677,562 1152.55121,603.961473 1145.5797,632.869952 Z" id="Path" fill="#F2F2F2"></path>
            <path d="M917.579701,1074.86995 C910.608119,1103.77841 901.801598,1110.65912 893.460689,1108.68667 C885.11978,1106.71423 880.403067,1096.6356 887.374578,1067.72726 C894.346089,1038.81892 918.706773,1004 918.706773,1004 C918.706773,1004 924.551212,1045.96147 917.579701,1074.86995 Z" id="Path" fill="#F2F2F2"></path>
            <path d="M1192.9663,358.196948 C1188.82107,375.817329 1183.58473,380.011223 1178.62528,378.809037 C1173.66582,377.606852 1170.86129,371.463614 1175.00649,353.843233 C1179.15169,336.222852 1193.63645,315 1193.63645,315 C1193.63645,315 1197.11155,340.576567 1192.9663,358.196948 Z" id="Path" fill="#F2F2F2"></path>
            <path d="M1034.9663,966.196948 C1030.82107,983.817329 1025.58473,988.011223 1020.62528,986.809037 C1015.66582,985.606852 1012.86129,979.463614 1017.00649,961.843233 C1021.15169,944.222852 1035.63645,923 1035.63645,923 C1035.63645,923 1039.11155,948.576567 1034.9663,966.196948 Z" id="Path" fill="#F2F2F2"></path>
            <path d="M1737.5797,178.869952 C1730.60812,207.778407 1721.8016,214.659117 1713.46069,212.686675 C1705.11978,210.714232 1700.40307,200.635601 1707.37458,171.727261 C1714.34609,142.818921 1738.70677,108 1738.70677,108 C1738.70677,108 1744.55121,149.961473 1737.5797,178.869952 Z" id="Path" fill="#F2F2F2"></path>
            <path d="M1707.5797,417.869952 C1700.60812,446.778407 1691.8016,453.659117 1683.46069,451.686675 C1675.11978,449.714232 1670.40307,439.635601 1677.37458,410.727261 C1684.34609,381.818921 1708.70677,347 1708.70677,347 C1708.70677,347 1714.55121,388.961473 1707.5797,417.869952 Z" id="Path" fill="#F2F2F2"></path>
            <path d="M1317.9663,263.196948 C1313.82107,280.817329 1308.58473,285.011223 1303.62528,283.809037 C1298.66582,282.606852 1295.86129,276.463614 1300.00649,258.843233 C1304.15169,241.222852 1318.63645,220 1318.63645,220 C1318.63645,220 1322.11155,245.576567 1317.9663,263.196948 Z" id="Path" fill="#F2F2F2"></path>
            <path d="M1729.9663,630.196948 C1725.82107,647.817329 1720.58473,652.011223 1715.62528,650.809037 C1710.66582,649.606852 1707.86129,643.463614 1712.00649,625.843233 C1716.15169,608.222852 1730.63645,587 1730.63645,587 C1730.63645,587 1734.11155,612.576567 1729.9663,630.196948 Z" id="Path" fill="#F2F2F2"></path>
            <path d="M1234.9663,181.196948 C1230.82107,198.817329 1225.58473,203.011223 1220.62528,201.809037 C1215.66582,200.606852 1212.86129,194.463614 1217.00649,176.843233 C1221.15169,159.222852 1235.63645,138 1235.63645,138 C1235.63645,138 1239.11155,163.576567 1234.9663,181.196948 Z" id="Path" fill="#F2F2F2"></path>
            <path d="M1501.9663,561.196948 C1497.82107,578.817329 1492.58473,583.011223 1487.62528,581.809037 C1482.66582,580.606852 1479.86129,574.463614 1484.00649,556.843233 C1488.15169,539.222852 1502.63645,518 1502.63645,518 C1502.63645,518 1506.11155,543.576567 1501.9663,561.196948 Z" id="Path" fill="#F2F2F2"></path>
            <path d="M1309.9663,43.1969482 C1305.82107,60.8173291 1300.58473,65.0112226 1295.62528,63.8090373 C1290.66582,62.606852 1287.86129,56.4636135 1292.00649,38.8432327 C1296.15169,21.2228518 1310.63645,0 1310.63645,0 C1310.63645,0 1314.11155,25.5765674 1309.9663,43.1969482 Z" id="Path" fill="#F2F2F2"></path>
            <path d="M231.579701,468.869952 C224.608119,497.778407 215.801598,504.659117 207.460689,502.686675 C199.11978,500.714232 194.403067,490.635601 201.374578,461.727261 C208.346089,432.818921 232.706773,398 232.706773,398 C232.706773,398 238.551212,439.961473 231.579701,468.869952 Z" id="Path" fill="#F2F2F2"></path>
            <path d="M698.579701,744.869952 C691.608119,773.778407 682.801598,780.659117 674.460689,778.686675 C666.11978,776.714232 661.403067,766.635601 668.374578,737.727261 C675.346089,708.818921 699.706773,674 699.706773,674 C699.706773,674 705.551212,715.961473 698.579701,744.869952 Z" id="Path" fill="#F2F2F2"></path>
            <path d="M33.5797005,1087.86995 C26.6081192,1116.77841 17.8015982,1123.65912 9.46068916,1121.68667 C1.11978013,1119.71423 -3.59693324,1109.6356 3.37457804,1080.72726 C10.3460893,1051.81892 34.7067728,1017 34.7067728,1017 C34.7067728,1017 40.5512118,1058.96147 33.5797005,1087.86995 Z" id="Path" fill="#F2F2F2"></path>
            <path d="M745.966298,470.196948 C741.821073,487.817329 736.584726,492.011223 731.625275,490.809037 C726.665824,489.606852 723.861288,483.463614 728.00649,465.843233 C732.151693,448.222852 746.636449,427 746.636449,427 C746.636449,427 750.111545,452.576567 745.966298,470.196948 Z" id="Path" fill="#F2F2F2"></path>
            <path d="M150.966298,979.196948 C146.821073,996.817329 141.584726,1001.01122 136.625275,999.809037 C131.665824,998.606852 128.861288,992.463614 133.00649,974.843233 C137.151693,957.222852 151.636449,936 151.636449,936 C151.636449,936 155.111545,961.576567 150.966298,979.196948 Z" id="Path" fill="#F2F2F2"></path>
            <path d="M570.579701,134.869952 C563.608119,163.778407 554.801598,170.659117 546.460689,168.686675 C538.11978,166.714232 533.403067,156.635601 540.374578,127.727261 C547.346089,98.8189211 571.706773,64 571.706773,64 C571.706773,64 577.551212,105.961473 570.579701,134.869952 Z" id="Path" fill="#F2F2F2"></path>
            <path d="M514.579701,460.869952 C507.608119,489.778407 498.801598,496.659117 490.460689,494.686675 C482.11978,492.714232 477.403067,482.635601 484.374578,453.727261 C491.346089,424.818921 515.706773,390 515.706773,390 C515.706773,390 521.551212,431.961473 514.579701,460.869952 Z" id="Path" fill="#F2F2F2"></path>
            <path d="M837.579701,694.869952 C830.608119,723.778407 821.801598,730.659117 813.460689,728.686675 C805.11978,726.714232 800.403067,716.635601 807.374578,687.727261 C814.346089,658.818921 838.706773,624 838.706773,624 C838.706773,624 844.551212,665.961473 837.579701,694.869952 Z" id="Path-Copy" fill="#F2F2F2"></path>
            <path d="M1049.9663,388.196948 C1045.82107,405.817329 1040.58473,410.011223 1035.62528,408.809037 C1030.66582,407.606852 1027.86129,401.463614 1032.00649,383.843233 C1036.15169,366.222852 1050.63645,345 1050.63645,345 C1050.63645,345 1054.11155,370.576567 1049.9663,388.196948 Z" id="Path" fill="#F2F2F2"></path>
            <path d="M562.966298,586.196948 C558.821073,603.817329 553.584726,608.011223 548.625275,606.809037 C543.665824,605.606852 540.861288,599.463614 545.00649,581.843233 C549.151693,564.222852 563.636449,543 563.636449,543 C563.636449,543 567.111545,568.576567 562.966298,586.196948 Z" id="Path" fill="#F2F2F2"></path>
            <path d="M966.966298,306.196948 C962.821073,323.817329 957.584726,328.011223 952.625275,326.809037 C947.665824,325.606852 944.861288,319.463614 949.00649,301.843233 C953.151693,284.222852 967.636449,263 967.636449,263 C967.636449,263 971.111545,288.576567 966.966298,306.196948 Z" id="Path" fill="#F2F2F2"></path>
            <path d="M334.966298,517.196948 C330.821073,534.817329 325.584726,539.011223 320.625275,537.809037 C315.665824,536.606852 312.861288,530.463614 317.00649,512.843233 C321.151693,495.222852 335.636449,474 335.636449,474 C335.636449,474 339.111545,499.576567 334.966298,517.196948 Z" id="Path" fill="#F2F2F2"></path>
            <g id="Group" transform="translate(230.000000, 766.000000)" fill="#F2F2F2">
                <path d="M514.579701,197.869952 C507.608119,226.778407 498.801598,233.659117 490.460689,231.686675 C482.11978,229.714232 477.403067,219.635601 484.374578,190.727261 C491.346089,161.818921 515.706773,127 515.706773,127 C515.706773,127 521.551212,168.961473 514.579701,197.869952 Z" id="Path"></path>
                <path d="M261.579701,317.869952 C254.608119,346.778407 245.801598,353.659117 237.460689,351.686675 C229.11978,349.714232 224.403067,339.635601 231.374578,310.727261 C238.346089,281.818921 262.706773,247 262.706773,247 C262.706773,247 268.551212,288.961473 261.579701,317.869952 Z" id="Path"></path>
                <path d="M33.5797005,759.869952 C26.6081192,788.778407 17.8015982,795.659117 9.46068916,793.686675 C1.11978013,791.714232 -3.59693324,781.635601 3.37457804,752.727261 C10.3460893,723.818921 34.7067728,689 34.7067728,689 C34.7067728,689 40.5512118,730.961473 33.5797005,759.869952 Z" id="Path"></path>
                <path d="M308.966298,43.1969482 C304.821073,60.8173291 299.584726,65.0112226 294.625275,63.8090373 C289.665824,62.606852 286.861288,56.4636135 291.00649,38.8432327 C295.151693,21.2228518 309.636449,0 309.636449,0 C309.636449,0 313.111545,25.5765674 308.966298,43.1969482 Z" id="Path"></path>
                <path d="M150.966298,651.196948 C146.821073,668.817329 141.584726,673.011223 136.625275,671.809037 C131.665824,670.606852 128.861288,664.463614 133.00649,646.843233 C137.151693,629.222852 151.636449,608 151.636449,608 C151.636449,608 155.111545,633.576567 150.966298,651.196948 Z" id="Path"></path>
            </g>
            <path d="M839.579701,205.869952 C832.608119,234.778407 823.801598,241.659117 815.460689,239.686675 C807.11978,237.714232 802.403067,227.635601 809.374578,198.727261 C816.346089,169.818921 840.706773,135 840.706773,135 C840.706773,135 846.551212,176.961473 839.579701,205.869952 Z" id="Path" fill="#F2F2F2"></path>
            <path d="M586.579701,325.869952 C579.608119,354.778407 570.801598,361.659117 562.460689,359.686675 C554.11978,357.714232 549.403067,347.635601 556.374578,318.727261 C563.346089,289.818921 587.706773,255 587.706773,255 C587.706773,255 593.551212,296.961473 586.579701,325.869952 Z" id="Path" fill="#F2F2F2"></path>
            <path d="M909.579701,559.869952 C902.608119,588.778407 893.801598,595.659117 885.460689,593.686675 C877.11978,591.714232 872.403067,581.635601 879.374578,552.727261 C886.346089,523.818921 910.706773,489 910.706773,489 C910.706773,489 916.551212,530.961473 909.579701,559.869952 Z" id="Path-Copy-2" fill="#F2F2F2"></path>
            <path d="M358.579701,767.869952 C351.608119,796.778407 342.801598,803.659117 334.460689,801.686675 C326.11978,799.714232 321.403067,789.635601 328.374578,760.727261 C335.346089,731.818921 359.706773,697 359.706773,697 C359.706773,697 365.551212,738.961473 358.579701,767.869952 Z" id="Path" fill="#F2F2F2"></path>
            <path d="M633.966298,51.1969482 C629.821073,68.8173291 624.584726,73.0112226 619.625275,71.8090373 C614.665824,70.606852 611.861288,64.4636135 616.00649,46.8432327 C620.151693,29.2228518 634.636449,8 634.636449,8 C634.636449,8 638.111545,33.5765674 633.966298,51.1969482 Z" id="Path" fill="#F2F2F2"></path>
            <path d="M475.966298,659.196948 C471.821073,676.817329 466.584726,681.011223 461.625275,679.809037 C456.665824,678.606852 453.861288,672.463614 458.00649,654.843233 C462.151693,637.222852 476.636449,616 476.636449,616 C476.636449,616 480.111545,641.576567 475.966298,659.196948 Z" id="Path" fill="#F2F2F2"></path>
            <path d="M172.966298,1092.19695 C168.821073,1109.81733 163.584726,1114.01122 158.625275,1112.80904 C153.665824,1111.60685 150.861288,1105.46361 155.00649,1087.84323 C159.151693,1070.22285 173.636449,1049 173.636449,1049 C173.636449,1049 177.111545,1074.57657 172.966298,1092.19695 Z" id="Path" fill="#F2F2F2"></path>
            <path d="M1246.9663,878.196948 C1242.82107,895.817329 1237.58473,900.011223 1232.62528,898.809037 C1227.66582,897.606852 1224.86129,891.463614 1229.00649,873.843233 C1233.15169,856.222852 1247.63645,835 1247.63645,835 C1247.63645,835 1251.11155,860.576567 1246.9663,878.196948 Z" id="Path" fill="#F2F2F2"></path>
            <path d="M1902.9663,917.196948 C1898.82107,934.817329 1893.58473,939.011223 1888.62528,937.809037 C1883.66582,936.606852 1880.86129,930.463614 1885.00649,912.843233 C1889.15169,895.222852 1903.63645,874 1903.63645,874 C1903.63645,874 1907.11155,899.576567 1902.9663,917.196948 Z" id="Path" fill="#F2F2F2"></path>
            <path d="M1707.5797,1154.86999 C1700.60812,1183.77841 1691.8016,1190.65912 1683.46069,1188.68668 C1675.11978,1186.71423 1670.40307,1176.63561 1677.37458,1147.72719 C1684.34609,1118.81877 1708.70677,1084 1708.70677,1084 C1708.70677,1084 1714.55121,1125.96154 1707.5797,1154.86999 Z" id="Path" fill="#F2F2F2"></path>
            <path d="M1444.5797,1064.86999 C1437.60812,1093.77841 1428.8016,1100.65912 1420.46069,1098.68668 C1412.11978,1096.71423 1407.40307,1086.63561 1414.37458,1057.72719 C1421.34609,1028.81877 1445.70677,994 1445.70677,994 C1445.70677,994 1451.55121,1035.96154 1444.5797,1064.86999 Z" id="Path" fill="#F2F2F2"></path>
            <path d="M2091.5797,689.869952 C2084.60812,718.778407 2075.8016,725.659117 2067.46069,723.686675 C2059.11978,721.714232 2054.40307,711.635601 2061.37458,682.727261 C2068.34609,653.818921 2092.70677,619 2092.70677,619 C2092.70677,619 2098.55121,660.961473 2091.5797,689.869952 Z" id="Path" fill="#F2F2F2"></path>
            <path d="M2114.9663,954.196948 C2110.82107,971.817329 2105.58473,976.011223 2100.62528,974.809037 C2095.66582,973.606852 2092.86129,967.463614 2097.00649,949.843233 C2101.15169,932.222852 2115.63645,911 2115.63645,911 C2115.63645,911 2119.11155,936.576567 2114.9663,954.196948 Z" id="Path" fill="#F2F2F2"></path>
            <path d="M1437.9663,846.196948 C1433.82107,863.817329 1428.58473,868.011223 1423.62528,866.809037 C1418.66582,865.606852 1415.86129,859.463614 1420.00649,841.843233 C1424.15169,824.222852 1438.63645,803 1438.63645,803 C1438.63645,803 1442.11155,828.576567 1437.9663,846.196948 Z" id="Path" fill="#F2F2F2"></path>
            <path d="M1513.9663,1399.19695 C1509.82107,1416.81733 1504.58473,1421.01122 1499.62528,1419.80904 C1494.66582,1418.60685 1491.86129,1412.46361 1496.00649,1394.84323 C1500.15169,1377.22285 1514.63645,1356 1514.63645,1356 C1514.63645,1356 1518.11155,1381.57657 1513.9663,1399.19695 Z" id="Path" fill="#F2F2F2"></path>
        </g>
        <g id="Group-9" transform="translate(956.000000, 1279.000000)">
            <path d="M24.909666,181.395229 C-0.517795405,198.717572 -8.8479289,233.452885 11.1179645,267.547008 C36.8571284,311.500286 104.066263,321.157795 155.302908,320.998064 C210.544252,320.826426 274.540367,314.769792 307.009366,275.721622 C325.351245,253.668516 325.543235,212.470318 308.263177,189.569843 C299.511907,177.972902 278.064185,175.769517 261.872601,173.219482 C230.269818,168.244137 193.686573,184.835681 158.492437,181.410296 C106.982487,176.396774 55.2252083,160.738128 24.9008571,181.394323 L24.909666,181.395229 Z" id="Path" fill="#88664E"></path>
            <path d="M292.996611,165.059036 C292.996611,180.453743 287.817398,194.86451 273.606193,206.095001 C249.729941,224.964035 206.072413,236 160.370221,236 C114.723382,236 72.2248728,224.362361 48.7055896,205.53178 C34.6629283,194.289414 29,180.483149 29,165.057905 C29,151.287265 35.4427247,137.762045 46.7377418,127.523411 C69.2866569,107.084596 111.172896,96 159.747785,96 C202.907138,96 243.549634,106.37107 267.99297,122.883058 C284.83603,134.260575 293,148.225741 293,165.057905 L292.996611,165.059036 Z" id="Path" fill="#9A7863" fill-rule="nonzero"></path>
            <path d="M131.376156,2.41726675 C134.184534,12.293061 122.124682,31.1040601 131.984177,39.5244776 C146.936673,52.294038 173.511839,50.0787426 197.691571,51.5538063 C219.804321,52.9029855 239.812712,57.6026698 249.14528,74.2523721 C254.482512,83.7743625 256.860958,96.1128336 253.325342,107.661799 C250.356588,117.359398 242.476571,126.500585 235.942301,132.952301 C212.823809,155.776864 172.453657,159.332901 140.379751,153.559543 C114.869222,148.967969 87.2498044,134.41364 74.9951461,111.719574 C63.6752169,90.7579655 64.7091613,61.34894 75.9878414,40.3659569 C86.551085,20.713816 127.570666,-8.64008585 131.375046,2.41726675 L131.376156,2.41726675 Z" id="Path" fill="#A78674"></path>
        </g>
    </g>
</svg>