<?xml version="1.0" encoding="UTF-8"?>
<svg width="989px" height="782px" viewBox="0 0 989 782" version="1.1" xmlns="http://www.w3.org/2000/svg" xmlns:xlink="http://www.w3.org/1999/xlink">
    <!-- Generator: Sketch 62 (91390) - https://sketch.com -->
    <title>schedule</title>
    <desc>Created with Sketch.</desc>
    <g id="schedule" stroke="none" stroke-width="1" fill="none" fill-rule="evenodd">
        <g id="Group-2" transform="translate(0.000000, -0.000000)">
            <path d="M490.5,203.94 C536.09,195.94 589.07,197.33 646.2,203.94 C634.61,138.21 634.08,73.83 646.2,11.01 L490.5,11.01 C478.999967,74.8058857 478.999967,140.144114 490.5,203.94 L490.5,203.94 Z" id="Path" fill="#F2F2F2" fill-rule="nonzero"></path>
            <rect id="Rectangle" fill="#1C315F" fill-rule="nonzero" transform="translate(564.060000, 8.885000) rotate(-180.000000) translate(-564.060000, -8.885000) " x="536.98" y="-8.8817842e-15" width="54.16" height="17.77"></rect>
            <path d="M369.3,584.87 C414.89,576.87 467.87,578.26 525,584.87 C513.41,519.14 512.88,454.76 525,391.94 L369.3,391.94 C357.799967,455.735886 357.799967,521.074114 369.3,584.87 L369.3,584.87 Z" id="Path" fill="#000000" fill-rule="nonzero" opacity="0.1"></path>
            <path d="M362.3,575.87 C407.89,567.87 460.87,569.26 518,575.87 C506.41,510.14 505.88,445.76 518,382.94 L362.3,382.94 C350.799967,446.735886 350.799967,512.074114 362.3,575.87 L362.3,575.87 Z" id="Path" fill="#F2F2F2" fill-rule="nonzero"></path>
            <rect id="Rectangle" fill="#1C315F" fill-rule="nonzero" transform="translate(435.840000, 380.815000) rotate(-180.000000) translate(-435.840000, -380.815000) " x="408.76" y="371.93" width="54.16" height="17.77"></rect>
            <path d="M228.5,260.94 C228.5,260.94 288.89,90.13 423.43,88.62" id="Path" stroke="#3F3D56" stroke-width="2"></path>
            <path d="M435.5,88.94 C429.77,90.94 422.65,94.35 418.19,98.06 L421.85,88.63 L418.63,79.04 C422.91,82.95 429.87,86.72 435.5,88.94 Z" id="Path" fill="#3F3D56" fill-rule="nonzero"></path>
            <path d="M233.5,325.94 C233.5,325.94 228.04,463.38 306.56,482.09" id="Path" stroke="#3F3D56" stroke-width="2"></path>
            <path d="M318.5,483.94 C312.55,485.1 305.02,487.51 300.09,490.56 L305.02,481.73 L303.16,471.79 C306.86,476.25 313.23,480.94 318.5,483.94 Z" id="Path" fill="#3F3D56" fill-rule="nonzero"></path>
            <path d="M249.5,280.94 C249.5,280.94 674.12,210.16 746.99,297.72" id="Path" stroke="#3F3D56" stroke-width="2"></path>
            <path d="M753.5,307.94 C748.6,304.37 741.71,300.48 736.13,298.94 L745.95,296.55 L751.95,288.42 C751.22,294.18 752.12,302.04 753.5,307.94 Z" id="Path" fill="#3F3D56" fill-rule="nonzero"></path>
            <ellipse id="Oval" fill="#1C315F" fill-rule="nonzero" cx="494.5" cy="748.43" rx="494.5" ry="33"></ellipse>
            <path d="M928.76,502.46 C888.37,525.06 848.15,559.57 808.02,600.76 C775.5,542.48 735.28,492.22 686.21,451.15 L806.95,352.85 C856.144599,395.062494 897.396812,445.729464 928.76,502.46 Z" id="Path" fill="#000000" fill-rule="nonzero" opacity="0.1"></path>
            <path d="M930.76,494.46 C890.37,517.06 850.15,551.57 810.02,592.76 C777.5,534.48 737.28,484.22 688.21,443.15 L808.95,344.85 C858.144599,387.062494 899.396812,437.729464 930.76,494.46 Z" id="Path" fill="#F2F2F2" fill-rule="nonzero"></path>
            <rect id="Rectangle" fill="#1C315F" fill-rule="nonzero" transform="translate(750.597891, 389.656857) rotate(-39.150000) translate(-750.597891, -389.656857) " x="723.517891" y="380.771857" width="54.16" height="17.77"></rect>
            <rect id="Rectangle" fill="#00A3EA" fill-rule="nonzero" transform="translate(792.115868, 441.213772) rotate(-39.150000) translate(-792.115868, -441.213772) " x="744.115868" y="434.713772" width="96" height="13"></rect>
            <path d="M253.89,382.78 C208.31,374.78 155.32,376.18 98.19,382.78 C109.78,317.06 110.32,252.68 98.19,189.85 L253.89,189.85 C265.390033,253.645886 265.390033,318.984114 253.89,382.78 L253.89,382.78 Z" id="Path" fill="#F2F2F2" fill-rule="nonzero"></path>
            <rect id="Rectangle" fill="#1C315F" fill-rule="nonzero" x="153.28" y="178.85" width="54.16" height="17.77"></rect>
            <rect id="Rectangle" fill="#00A3EA" fill-rule="nonzero" x="388" y="433.43" width="96" height="13"></rect>
            <rect id="Rectangle" fill="#00A3EA" fill-rule="nonzero" x="388" y="460.43" width="96" height="13"></rect>
            <rect id="Rectangle" fill="#00A3EA" fill-rule="nonzero" x="516" y="43.43" width="96" height="13"></rect>
            <rect id="Rectangle" fill="#00A3EA" fill-rule="nonzero" x="516" y="70.43" width="96" height="13"></rect>
            <rect id="Rectangle" fill="#00A3EA" fill-rule="nonzero" x="132" y="225.43" width="96" height="13"></rect>
            <path d="M127.56,721.31 L146.7,710.06 C144.111539,705.63872 140.802666,701.680916 136.91,698.35 L100.8,709.58 L129.1,692.94 C114.847315,685.13242 97.5326385,685.424583 83.551479,693.708574 C69.5703195,701.992565 60.9976686,717.038929 60.9999995,733.29 C60.9999995,758.7 81.59,759.58 107,759.58 C132.41,759.58 153.000044,758.7 153.000044,733.29 C153.008936,726.861566 151.663024,720.50341 149.05,714.63 L127.56,721.31 Z" id="Path" fill="#00A3EA" fill-rule="nonzero"></path>
            <path d="M132.43,746.01 C130.392974,743.966686 128.116469,742.177044 125.65,740.68 C122.17,738.37 118.58,736.02 114.48,735.23 C110.88,734.55 107.17,735.13 103.48,734.92 C97.1156863,734.526703 91.1246016,731.782422 86.67,727.22 C84.06,724.51 82,721.22 78.86,719.13 C75.47,716.9 71.17,716.42 67.15,716.98 C65.9833416,717.146316 64.827876,717.383421 63.69,717.69 C61.8844417,722.692628 60.9640205,727.971514 60.9699711,733.29 C60.9699711,758.7 81.56,759.58 106.97,759.58 C119.3,759.58 130.49,759.37 138.75,756.25 L137.4,753.72 C136.079936,750.947996 134.40963,748.356837 132.43,746.01 Z" id="Path" fill="#000000" fill-rule="nonzero" opacity="0.1"></path>
            <path d="M597.74,684.62 L572.35,669.72 C575.791064,663.857483 580.184504,658.609012 585.35,654.19 L633.24,669.08 L595.71,647.02 C614.610919,636.664532 637.573449,637.051281 656.114921,648.037375 C674.656392,659.023469 686.02461,678.978192 686.020001,700.53 C686.020001,734.22 658.71,735.38 625.02,735.38 C591.33,735.38 564.019701,734.22 564.019701,700.53 C563.993195,691.985695 565.768485,683.531772 569.23,675.72 L597.74,684.62 Z" id="Path" fill="#00A3EA" fill-rule="nonzero"></path>
            <path d="M591.27,717.37 C593.98126,714.667299 597.002175,712.294202 600.27,710.3 C604.88,707.25 609.65,704.12 615.08,703.08 C619.85,702.17 624.77,702.94 629.62,702.66 C638.064714,702.149618 646.015811,698.509228 651.92,692.45 C655.38,688.86 658.11,684.45 662.28,681.72 C666.77,678.72 672.47,678.14 677.8,678.87 C679.349444,679.098554 680.885108,679.412364 682.4,679.81 C684.790385,686.449274 686.008516,693.453526 686.000044,700.51 C686.000044,734.2 658.69,735.36 625,735.36 C608.65,735.36 593.81,735.09 582.85,730.96 L584.68,727.54 C586.438663,723.88547 588.652935,720.4683 591.27,717.37 Z" id="Path" fill="#000000" fill-rule="nonzero" opacity="0.1"></path>
        </g>
    </g>
</svg>